<mxfile host="app.diagrams.net" modified="2023-06-01T00:01:36.485Z" agent="Mozilla/5.0 (Macintosh; Intel Mac OS X 10_15_7) AppleWebKit/537.36 (KHTML, like Gecko) Chrome/112.0.0.0 Safari/537.36" version="21.3.6" etag="v4drnwNVvUwG8ioPJ4NV" type="github">
  <diagram name="PÃ¡gina-1" id="5zx6mmOo-Q30FPNym82I">
    <mxGraphModel>
      <root>
        <mxCell id="0" />
        <mxCell id="1" parent="0" />
      </root>
    </mxGraphModel>
  </diagram>
</mxfile>
